<?xml version="1.0"?>
<mxfile host="embed.diagrams.net" modified="2020-07-29T13:40:52.563Z" agent="5.0 (X11; Linux x86_64) AppleWebKit/537.36 (KHTML, like Gecko) Chrome/84.0.4147.105 Safari/537.36" etag="HM_DAUOCr3Fq7MYP90Ct" version="13.5.4" pages="5">
  <diagram id="cHajxc95WwNb1qutXWeA" name="E">
    <mxGraphModel dx="2" dy="1" grid="1" gridSize="10" guides="1" tooltips="1" connect="1" arrows="1" fold="1" page="1" pageScale="1" pageWidth="1654" pageHeight="1169" math="0" shadow="0">
      <root>
        <mxCell id="U8hseFGrGmRicF-OsMEn-0"/>
        <mxCell id="U8hseFGrGmRicF-OsMEn-1" parent="U8hseFGrGmRicF-OsMEn-0"/>
        <mxCell id="U8hseFGrGmRicF-OsMEn-3" style="edgeStyle=orthogonalEdgeStyle;rounded=0;orthogonalLoop=1;jettySize=auto;html=1;strokeColor=#D79B00;strokeWidth=3;" parent="U8hseFGrGmRicF-OsMEn-1" source="U8hseFGrGmRicF-OsMEn-6" target="U8hseFGrGmRicF-OsMEn-8" edge="1">
          <mxGeometry relative="1" as="geometry">
            <mxPoint x="670.0000000000002" y="250.21000000000004" as="targetPoint"/>
            <Array as="points">
              <mxPoint x="600" y="210"/>
              <mxPoint x="920" y="210"/>
            </Array>
          </mxGeometry>
        </mxCell>
        <mxCell id="U8hseFGrGmRicF-OsMEn-4" style="edgeStyle=orthogonalEdgeStyle;rounded=0;orthogonalLoop=1;jettySize=auto;html=1;strokeColor=#D79B00;strokeWidth=3;" parent="U8hseFGrGmRicF-OsMEn-1" source="U8hseFGrGmRicF-OsMEn-5" target="U8hseFGrGmRicF-OsMEn-6" edge="1">
          <mxGeometry relative="1" as="geometry"/>
        </mxCell>
        <mxCell id="U8hseFGrGmRicF-OsMEn-5" value="" style="ellipse;whiteSpace=wrap;html=1;aspect=fixed;fillColor=#d5e8d4;rotation=0;strokeColor=#82b366;" parent="U8hseFGrGmRicF-OsMEn-1" vertex="1">
          <mxGeometry x="509.78999999999985" y="240" width="20.42" height="20.42" as="geometry"/>
        </mxCell>
        <mxCell id="U8hseFGrGmRicF-OsMEn-6" value="" style="ellipse;whiteSpace=wrap;html=1;aspect=fixed;fillColor=#d5e8d4;strokeColor=#82b366;rotation=0;" parent="U8hseFGrGmRicF-OsMEn-1" vertex="1">
          <mxGeometry x="590" y="240" width="20.42" height="20.42" as="geometry"/>
        </mxCell>
        <mxCell id="U8hseFGrGmRicF-OsMEn-7" style="edgeStyle=orthogonalEdgeStyle;rounded=0;orthogonalLoop=1;jettySize=auto;html=1;strokeColor=#D79B00;strokeWidth=3;" parent="U8hseFGrGmRicF-OsMEn-1" source="U8hseFGrGmRicF-OsMEn-8" target="U8hseFGrGmRicF-OsMEn-9" edge="1">
          <mxGeometry relative="1" as="geometry"/>
        </mxCell>
        <mxCell id="U8hseFGrGmRicF-OsMEn-8" value="" style="ellipse;whiteSpace=wrap;html=1;aspect=fixed;fillColor=#d5e8d4;strokeColor=#82b366;rotation=0;" parent="U8hseFGrGmRicF-OsMEn-1" vertex="1">
          <mxGeometry x="909.9" y="240" width="20.42" height="20.42" as="geometry"/>
        </mxCell>
        <mxCell id="U8hseFGrGmRicF-OsMEn-9" value="" style="ellipse;whiteSpace=wrap;html=1;aspect=fixed;fillColor=#d5e8d4;strokeColor=#82b366;rotation=0;" parent="U8hseFGrGmRicF-OsMEn-1" vertex="1">
          <mxGeometry x="989.9" y="240" width="20.42" height="20.42" as="geometry"/>
        </mxCell>
        <mxCell id="U8hseFGrGmRicF-OsMEn-10" value="Start" style="text;html=1;strokeColor=none;fillColor=none;align=center;verticalAlign=middle;whiteSpace=wrap;rounded=0;" parent="U8hseFGrGmRicF-OsMEn-1" vertex="1">
          <mxGeometry x="499.9999999999999" y="210" width="40" height="20" as="geometry"/>
        </mxCell>
        <mxCell id="U8hseFGrGmRicF-OsMEn-11" value="Goal" style="text;html=1;strokeColor=none;fillColor=none;align=center;verticalAlign=middle;whiteSpace=wrap;rounded=0;" parent="U8hseFGrGmRicF-OsMEn-1" vertex="1">
          <mxGeometry x="980.11" y="210" width="40" height="20" as="geometry"/>
        </mxCell>
        <mxCell id="U8hseFGrGmRicF-OsMEn-12" value="1" style="text;html=1;strokeColor=none;fillColor=none;align=center;verticalAlign=middle;whiteSpace=wrap;rounded=0;" parent="U8hseFGrGmRicF-OsMEn-1" vertex="1">
          <mxGeometry x="499.9999999999999" y="260.4200000000001" width="40" height="20" as="geometry"/>
        </mxCell>
        <mxCell id="U8hseFGrGmRicF-OsMEn-13" value="2" style="text;html=1;strokeColor=none;fillColor=none;align=center;verticalAlign=middle;whiteSpace=wrap;rounded=0;" parent="U8hseFGrGmRicF-OsMEn-1" vertex="1">
          <mxGeometry x="580.21" y="260.4200000000001" width="40" height="20" as="geometry"/>
        </mxCell>
        <mxCell id="U8hseFGrGmRicF-OsMEn-14" value="3" style="text;html=1;strokeColor=none;fillColor=none;align=center;verticalAlign=middle;whiteSpace=wrap;rounded=0;" parent="U8hseFGrGmRicF-OsMEn-1" vertex="1">
          <mxGeometry x="650.21" y="260.4200000000001" width="40" height="20" as="geometry"/>
        </mxCell>
        <mxCell id="U8hseFGrGmRicF-OsMEn-15" value="4&lt;span style=&quot;color: rgba(0 , 0 , 0 , 0) ; font-family: monospace ; font-size: 0px&quot;&gt;%3CmxGraphModel%3E%3Croot%3E%3CmxCell%20id%3D%220%22%2F%3E%3CmxCell%20id%3D%221%22%20parent%3D%220%22%2F%3E%3CmxCell%20id%3D%222%22%20value%3D%221%22%20style%3D%22text%3Bhtml%3D1%3BstrokeColor%3Dnone%3BfillColor%3Dnone%3Balign%3Dcenter%3BverticalAlign%3Dmiddle%3BwhiteSpace%3Dwrap%3Brounded%3D0%3B%22%20vertex%3D%221%22%20parent%3D%221%22%3E%3CmxGeometry%20x%3D%22500%22%20y%3D%22370.42%22%20width%3D%2240%22%20height%3D%2220%22%20as%3D%22geometry%22%2F%3E%3C%2FmxCell%3E%3C%2Froot%3E%3C%2FmxGraphModel%3E&lt;/span&gt;" style="text;html=1;strokeColor=none;fillColor=none;align=center;verticalAlign=middle;whiteSpace=wrap;rounded=0;" parent="U8hseFGrGmRicF-OsMEn-1" vertex="1">
          <mxGeometry x="729.7900000000001" y="260.4200000000001" width="40" height="20" as="geometry"/>
        </mxCell>
        <mxCell id="U8hseFGrGmRicF-OsMEn-16" value="5" style="text;html=1;strokeColor=none;fillColor=none;align=center;verticalAlign=middle;whiteSpace=wrap;rounded=0;" parent="U8hseFGrGmRicF-OsMEn-1" vertex="1">
          <mxGeometry x="779.32" y="260.4200000000001" width="40" height="20" as="geometry"/>
        </mxCell>
        <mxCell id="U8hseFGrGmRicF-OsMEn-17" value="6" style="text;html=1;strokeColor=none;fillColor=none;align=center;verticalAlign=middle;whiteSpace=wrap;rounded=0;" parent="U8hseFGrGmRicF-OsMEn-1" vertex="1">
          <mxGeometry x="880.11" y="260.4200000000001" width="40" height="20" as="geometry"/>
        </mxCell>
        <mxCell id="U8hseFGrGmRicF-OsMEn-18" value="7" style="text;html=1;strokeColor=none;fillColor=none;align=center;verticalAlign=middle;whiteSpace=wrap;rounded=0;" parent="U8hseFGrGmRicF-OsMEn-1" vertex="1">
          <mxGeometry x="980.11" y="260.4200000000001" width="40" height="20" as="geometry"/>
        </mxCell>
        <mxCell id="U8hseFGrGmRicF-OsMEn-21" value="" style="ellipse;whiteSpace=wrap;html=1;aspect=fixed;fillColor=#E6E6E6;strokeColor=#B3B3B3;rotation=0;" parent="U8hseFGrGmRicF-OsMEn-1" vertex="1">
          <mxGeometry x="670" y="240" width="20.42" height="20.42" as="geometry"/>
        </mxCell>
        <mxCell id="U8hseFGrGmRicF-OsMEn-22" value="" style="ellipse;whiteSpace=wrap;html=1;aspect=fixed;fillColor=#E6E6E6;strokeColor=#B3B3B3;rotation=0;" parent="U8hseFGrGmRicF-OsMEn-1" vertex="1">
          <mxGeometry x="789.27" y="240" width="20.42" height="20.42" as="geometry"/>
        </mxCell>
        <mxCell id="U8hseFGrGmRicF-OsMEn-23" value="" style="ellipse;whiteSpace=wrap;html=1;aspect=fixed;rotation=0;fillColor=#E6E6E6;strokeColor=#B3B3B3;" parent="U8hseFGrGmRicF-OsMEn-1" vertex="1">
          <mxGeometry x="739.48" y="240" width="20.42" height="20.42" as="geometry"/>
        </mxCell>
        <mxCell id="U8hseFGrGmRicF-OsMEn-24" value="&lt;b&gt;Legend&lt;/b&gt;" style="text;html=1;strokeColor=none;align=center;verticalAlign=middle;whiteSpace=wrap;rounded=0;fillColor=#a8ca40;fontColor=#FFFFFF;" parent="U8hseFGrGmRicF-OsMEn-1" vertex="1">
          <mxGeometry x="1070.21" y="190" width="209.79" height="20" as="geometry"/>
        </mxCell>
        <mxCell id="U8hseFGrGmRicF-OsMEn-25" value="Skipped sampling point" style="text;html=1;strokeColor=none;fillColor=none;align=left;verticalAlign=middle;whiteSpace=wrap;rounded=0;" parent="U8hseFGrGmRicF-OsMEn-1" vertex="1">
          <mxGeometry x="1120.63" y="260" width="159.37" height="20" as="geometry"/>
        </mxCell>
        <mxCell id="U8hseFGrGmRicF-OsMEn-26" value="" style="ellipse;whiteSpace=wrap;html=1;aspect=fixed;fillColor=#d5e8d4;strokeColor=#82b366;rotation=0;" parent="U8hseFGrGmRicF-OsMEn-1" vertex="1">
          <mxGeometry x="1079.7899999999995" y="220" width="20.42" height="20.42" as="geometry"/>
        </mxCell>
        <mxCell id="U8hseFGrGmRicF-OsMEn-27" value="Sampling point" style="text;html=1;strokeColor=none;fillColor=none;align=left;verticalAlign=middle;whiteSpace=wrap;rounded=0;" parent="U8hseFGrGmRicF-OsMEn-1" vertex="1">
          <mxGeometry x="1120.63" y="220" width="159.37" height="20" as="geometry"/>
        </mxCell>
        <mxCell id="U8hseFGrGmRicF-OsMEn-28" value="" style="ellipse;whiteSpace=wrap;html=1;aspect=fixed;fillColor=#E6E6E6;strokeColor=#B3B3B3;rotation=0;" parent="U8hseFGrGmRicF-OsMEn-1" vertex="1">
          <mxGeometry x="1079.7899999999995" y="260" width="20.42" height="20.42" as="geometry"/>
        </mxCell>
        <mxCell id="U8hseFGrGmRicF-OsMEn-29" value="" style="curved=1;html=1;strokeColor=#D79B00;fontColor=#000000;fontSize=11;rounded=0;strokeWidth=3;" parent="U8hseFGrGmRicF-OsMEn-1" edge="1">
          <mxGeometry width="50" height="50" relative="1" as="geometry">
            <mxPoint x="1069.9999999999995" y="250" as="sourcePoint"/>
            <mxPoint x="1109.9999999999995" y="250" as="targetPoint"/>
            <Array as="points"/>
          </mxGeometry>
        </mxCell>
        <mxCell id="U8hseFGrGmRicF-OsMEn-30" value="&lt;span style=&quot;text-align: right&quot;&gt;Route from underlying router&lt;/span&gt;" style="text;html=1;strokeColor=none;fillColor=none;align=left;verticalAlign=middle;whiteSpace=wrap;rounded=0;" parent="U8hseFGrGmRicF-OsMEn-1" vertex="1">
          <mxGeometry x="1120.63" y="240" width="159.37" height="20" as="geometry"/>
        </mxCell>
        <mxCell id="XWYJB6DtEF7rd34cAAku-0" value="" style="endArrow=none;html=1;strokeWidth=1;fontColor=#82B366;strokeColor=#FF0000;" parent="U8hseFGrGmRicF-OsMEn-1" edge="1">
          <mxGeometry width="50" height="50" relative="1" as="geometry">
            <mxPoint x="760.8899999999999" y="240" as="sourcePoint"/>
            <mxPoint x="760.8899999999999" y="260" as="targetPoint"/>
          </mxGeometry>
        </mxCell>
        <mxCell id="QeEGJBnrS009Oe-6bPoO-0" value="" style="endArrow=none;html=1;strokeWidth=1;fontColor=#82B366;strokeColor=#FF0000;" parent="U8hseFGrGmRicF-OsMEn-1" edge="1">
          <mxGeometry width="50" height="50" relative="1" as="geometry">
            <mxPoint x="690.4199999999998" y="240.04999999999995" as="sourcePoint"/>
            <mxPoint x="690.4199999999998" y="260.04999999999995" as="targetPoint"/>
          </mxGeometry>
        </mxCell>
      </root>
    </mxGraphModel>
  </diagram>
</mxfile>
